#!OML:ASF F:\VICON\USERDATA\INSTALL\rory3\rory3.ASF
:FULLY-SPECIFIED
:DEGREES
229
root 0.650008 19.8516 -14.539 0.0635899 -1.05958 2.71678
lowerback 7.27353 0.658191 0.87864
upperback -1.18581 1.07385 2.20414
thorax -5.34479 0.538964 1.67279
lowerneck -15.459 -3.77736 -9.28197
upperneck 15.2682 -4.21043 6.60441
head 7.5843 -1.94357 3.23217
rclavicle -2.9445e-015 1.59028e-015
rhumerus -53.8005 10.4524 -82.1906
rradius 62.5671
rwrist -3.72231
rhand -23.5722 11.9978
rfingers 7.12502
rthumb 2.89046 -17.9623
lclavicle -2.9445e-015 1.59028e-015
lhumerus -55.3293 -3.39348 87.4816
lradius 67.9152
lwrist 8.51321
lhand -26.6515 21.876
lfingers 7.12502
lthumb -0.0834758 51.8557
rfemur -7.66222 1.4447 16.3097
rtibia 27.2957
rfoot 18.693 -5.01201
rtoes 14.2995
lfemur -12.8216 2.84898 -18.943
ltibia 31.2587
lfoot 18.7876 -9.16002
ltoes -1.75891
230
root 0.650054 19.4416 -14.5064 -0.0555536 -1.30471 2.75004
lowerback 7.21147 0.749228 0.869683
upperback -1.1836 1.19408 2.22517
thorax -5.3108 0.598988 1.68614
lowerneck -15.648 -3.90591 -9.37513
upperneck 14.9928 -4.33937 6.62357
head 7.54053 -2.00359 3.23459
rclavicle -1.24986e-014 -2.70347e-014
rhumerus -53.8553 10.8779 -82.0059
rradius 64.0236
rwrist -3.21724
rhand -23.5139 13.0051
rfingers 7.12502
rthumb 2.94685 -16.9543
lclavicle -1.24986e-014 -2.70347e-014
lhumerus -55.8658 -3.86511 87.4376
lradius 69.7082
lwrist 8.23759
lhand -26.3683 21.8078
lfingers 7.12502
lthumb 0.190046 51.7875
rfemur -7.85312 1.92463 16.2734
rtibia 28.0868
rfoot 17.8031 -5.31948
rtoes 12.9135
lfemur -12.7778 2.95469 -18.9593
ltibia 31.7741
lfoot 17.9051 -9.25032
ltoes -4.25104
231
root 0.650047 19.0159 -14.4874 -0.137607 -1.5029 2.91024
lowerback 7.30374 0.816379 0.728611
upperback -1.26717 1.27334 2.19433
thorax -5.45504 0.642201 1.72292
lowerneck -15.415 -3.8514 -9.51218
upperneck 14.3401 -4.26724 6.84107
head 7.28828 -1.95732 3.33478
rclavicle 2.24875e-015 2.8625e-014
rhumerus -53.8604 11.1943 -81.7485
rradius 65.7042
rwrist -3.37516
rhand -22.8011 12.5895
rfingers 7.12502
rthumb 3.63522 -17.3593
lclavicle 2.24875e-015 2.8625e-014
lhumerus -56.4652 -4.21499 87.2458
lradius 71.5059
lwrist 7.83824
lhand -26.1476 21.5101
lfingers 7.12502
lthumb 0.403161 51.4894
rfemur -8.4568 2.42415 16.0816
rtibia 29.647
rfoot 10.9858 -5.29341
rtoes -4.42202
lfemur -13.037 2.86261 -19.091
ltibia 32.7551
lfoot 16.2873 -8.79524
ltoes -6.13504
232
root 0.654302 18.5529 -14.4826 -0.102852 -1.66538 3.11606
lowerback 7.13906 0.855551 0.578367
upperback -1.20321 1.30391 2.1354
thorax -5.29709 0.660809 1.74435
lowerneck -15.4716 -3.75774 -9.66121
upperneck 13.7422 -4.14421 7.24217
head 7.1046 -1.86625 3.50141
rclavicle -1.67725e-016 2.22639e-014
rhumerus -53.3505 11.4186 -81.4199
rradius 67.4756
rwrist -4.1289
rhand -22.1026 11.5465
rfingers 7.12502
rthumb 4.3097 -18.3896
lclavicle -1.67725e-016 2.22639e-014
lhumerus -56.6771 -4.2908 86.909
lradius 73.2019
lwrist 7.24111
lhand -26.0646 21.5849
lfingers 7.12502
lthumb 0.483395 51.5641
rfemur -8.85854 2.16564 15.8598
rtibia 32.4103
rfoot 1.95657 -4.88085
rtoes -8.3066
lfemur -13.6662 2.49852 -19.2605
ltibia 34.3703
lfoot 10.9094 -9.37304
ltoes -15.4753
233
root 0.659314 18.1088 -14.4894 -0.0130333 -1.93204 2.9824
lowerback 7.06276 0.883953 0.682021
upperback -1.10729 1.35264 2.24366
thorax -5.15524 0.683121 1.79434
lowerneck -16.0015 -3.79184 -9.9278
upperneck 13.6344 -4.12865 7.56582
head 7.17212 -1.83329 3.65016
rclavicle -1.10077e-014 -3.18055e-015
rhumerus -52.6381 11.5875 -81.0232
rradius 68.9773
rwrist -4.18713
rhand -21.8218 11.3359
rfingers 7.12502
rthumb 4.58083 -18.5946
lclavicle -1.10077e-014 -3.18055e-015
lhumerus -56.7113 -4.17369 86.6791
lradius 74.9047
lwrist 6.6944
lhand -26.1855 21.836
lfingers 7.12502
lthumb 0.36654 51.8154
rfemur -9.19 1.29359 16.1481
rtibia 35.2136
rfoot -4.12154 -5.49438
rtoes -10.1339
lfemur -14.5389 2.3566 -19.0603
ltibia 37.2425
lfoot 0.498969 -12.9508
ltoes -18.6871
234
root 0.659334 17.8066 -14.5077 -0.0076322 -2.11376 2.55642
lowerback 7.61706 0.852511 1.06714
upperback -1.15843 1.37084 2.44081
thorax -5.52039 0.683243 1.77461
lowerneck -16.4039 -3.90076 -10.1709
upperneck 13.5457 -4.20583 7.74095
head 7.22893 -1.85881 3.73608
rclavicle 2.03754e-015 1.59028e-015
rhumerus -52.1463 11.6278 -80.6584
rradius 70.3584
rwrist -3.62536
rhand -21.6906 11.4359
rfingers 7.12502
rthumb 4.70753 -18.4918
lclavicle 2.03754e-015 1.59028e-015
lhumerus -56.8623 -3.80471 86.4073
lradius 76.6088
lwrist 6.18534
lhand -26.2133 22.1452
lfingers 7.12502
lthumb 0.339713 52.1246
rfemur -9.75783 0.558416 16.6973
rtibia 38.4303
rfoot -10.3667 -6.2526
rtoes -14.465
lfemur -15.0262 2.8984 -18.5658
ltibia 40.4155
lfoot -6.88828 -12.415
ltoes -31.9103
235
root 0.66047 17.4834 -14.5458 -0.0422912 -2.18764 2.40428
lowerback 8.61666 0.783227 1.24637
upperback -1.27553 1.33189 2.51085
thorax -6.20935 0.658111 1.74183
lowerneck -16.4597 -3.94433 -10.092
upperneck 12.7603 -4.22624 7.65218
head 6.98166 -1.86652 3.68305
rclavicle -5.31749e-015 -3.81667e-014
rhumerus -51.3135 11.3029 -80.3568
rradius 71.2854
rwrist -2.77814
rhand -21.5359 11.4067
rfingers 7.12502
rthumb 4.85687 -18.5177
lclavicle -5.31749e-015 -3.81667e-014
lhumerus -56.997 -3.05338 85.9501
lradius 78.27
lwrist 5.55371
lhand -25.8993 22.6372
lfingers 7.12502
lthumb 0.643004 52.616
rfemur -11.3109 0.537536 16.8662
rtibia 41.1571
rfoot -14.9727 -6.68658
rtoes -12.1874
lfemur -15.9198 3.65432 -18.359
ltibia 44.056
lfoot -10.9875 -9.90551
ltoes -12.0774
236
root 0.669073 17.1289 -14.5949 -0.0816202 -2.11894 2.47939
lowerback 9.82723 0.696655 1.21783
upperback -1.4146 1.25741 2.58182
thorax -7.0489 0.622676 1.83429
lowerneck -16.7913 -3.89645 -9.7631
upperneck 12.0693 -4.08799 7.12357
head 6.78239 -1.81894 3.46162
rclavicle 9.49197e-015 -6.36111e-015
rhumerus -49.9637 10.6491 -79.9142
rradius 71.4625
rwrist -1.86296
rhand -21.6761 11.2757
rfingers 7.12502
rthumb 4.72149 -18.6516
lclavicle 9.49197e-015 -6.36111e-015
lhumerus -56.929 -1.85499 85.637
lradius 79.5973
lwrist 4.55078
lhand -25.4117 21.9359
lfingers 7.12502
lthumb 1.11392 51.9128
rfemur -12.9112 0.127908 16.8367
rtibia 44.0321
rfoot -18.667 -7.93611
rtoes -12.144
lfemur -17.6577 4.33916 -18.6715
ltibia 47.1175
lfoot -16.2315 -10.2415
ltoes -15.0667
